Source: Defiance.720p.BluRay.x264-iNFAMOUS

Subs: Arabic, Brazilian, Bulgarian, Danish, Dutch, English, French, Greek, Hebrew, Hungarian, Italian, Polish, Portuguese, Romanian, Serbian, Slovenian, Spanish and Swedish.

Sample and Screens included. 

General
Complete name                    : Defiance-720p MP4 AAC BRRip 2008-CC.mp4
Format                           : MPEG-4
Format profile                   : Base Media
Codec ID                         : isom
File size                        : 2.15 GiB
Duration                         : 2h 16mn
Overall bit rate                 : 2 252 Kbps
Encoded date                     : UTC 2012-03-16 08:45:13

Video
ID                               : 1
Format                           : AVC
Format/Info                      : Advanced Video Codec
Format profile                   : High@L3.1
Format settings, CABAC           : Yes
Format settings, ReFrames        : 5 frames
Codec ID                         : avc1
Codec ID/Info                    : Advanced Video Coding
Duration                         : 2h 16mn
Bit rate mode                    : Variable
Bit rate                         : 1 863 Kbps
Nominal bit rate                 : 1 932 Kbps
Maximum bit rate                 : 19.4 Mbps
Width                            : 1 280 pixels
Height                           : 688 pixels
Display aspect ratio             : 1.860
Frame rate mode                  : Variable
Frame rate                       : 23.976 fps
Minimum frame rate               : 13.649 fps
Maximum frame rate               : 24.390 fps
Resolution                       : 24 bits
Colorimetry                      : 4:2:0
Scan type                        : Progressive
Bits/(Pixel*Frame)               : 0.088
Stream size                      : 1.78 GiB (83%)
Writing library                  : x264 core 112

Audio
ID                               : 2
Format                           : AAC
Format/Info                      : Advanced Audio Codec
Format version                   : Version 4
Format profile                   : LC
Format settings, SBR             : No
Codec ID                         : 40
Duration                         : 2h 16mn
Bit rate mode                    : Variable
Bit rate                         : 384 Kbps
Maximum bit rate                 : 669 Kbps
Channel(s)                       : 6 channels
Channel positions                : Front: L C R, Rear: L R, LFE
Sampling rate                    : 48.0 KHz
Resolution                       : 16 bits
Stream size                      : 375 MiB (17%)
Language                         : English
